<svg id="visual" viewBox="0 0 900 600" width="900" height="600" xmlns="http://www.w3.org/2000/svg" xmlns:xlink="http://www.w3.org/1999/xlink" version="1.1"><rect x="0" y="0" width="900" height="600" fill="#020617"></rect><path d="M0 404L18.8 399.8C37.7 395.7 75.3 387.3 112.8 380.7C150.3 374 187.7 369 225.2 374.8C262.7 380.7 300.3 397.3 337.8 409.5C375.3 421.7 412.7 429.3 450.2 431.2C487.7 433 525.3 429 562.8 413.8C600.3 398.7 637.7 372.3 675.2 372C712.7 371.7 750.3 397.3 787.8 409.8C825.3 422.3 862.7 421.7 881.3 421.3L900 421L900 601L881.3 601C862.7 601 825.3 601 787.8 601C750.3 601 712.7 601 675.2 601C637.7 601 600.3 601 562.8 601C525.3 601 487.7 601 450.2 601C412.7 601 375.3 601 337.8 601C300.3 601 262.7 601 225.2 601C187.7 601 150.3 601 112.8 601C75.3 601 37.7 601 18.8 601L0 601Z" fill="#0066FF" stroke-linecap="round" stroke-linejoin="miter"></path></svg>